<?xml version="1.0" encoding="utf-8"?>
<!-- Generator: Adobe Illustrator 19.0.0, SVG Export Plug-In . SVG Version: 6.00 Build 0)  -->
<svg version="1.1" id="Layer_1" xmlns="http://www.w3.org/2000/svg" xmlns:xlink="http://www.w3.org/1999/xlink" x="0px" y="0px"
	 viewBox="0 0 479.9 507" style="enable-background:new 0 0 479.9 507;" xml:space="preserve">
<style type="text/css">
	.st0{stroke:#FFFFFF;stroke-miterlimit:10;}
	.st1{fill:#FFFFFF;}
	.st2{fill:none;stroke:#FFFFFF;stroke-width:2;stroke-miterlimit:10;}
</style>
<path id="XMLID_94_" class="st0" d="M458.6,404.3H21.3c-6.6,0-12-5.4-12-12V114.7c0-6.6,5.4-12,12-12h437.2c6.6,0,12,5.4,12,12
	v277.6C470.6,398.9,465.2,404.3,458.6,404.3z"/>
<path id="XMLID_91_" class="st0" d="M445,392.4H44c-6.6,0-12-5.4-12-12V126.5c0-6.6,5.4-12,12-12h401c6.6,0,12,5.4,12,12v253.9
	C457,387,451.6,392.4,445,392.4z"/>
<path id="XMLID_93_" class="st0" d="M220.6,335.9l11.6,30.3h-23l10.2,3.3l-10.2,1.6l8.1,1l-11.6,4.7l26.6-2.1c0,0,19.1,0.3,20.5-0.3
	c1.5-0.6-17.2-28.3-13.8-36.2L220.6,335.9z"/>
<path id="pellican-outline" class="st0" d="M183.1,171.3c-2.4,0.4-72.8,11.9-92.6,8.8c0,0,0,0,0,0c3-0.5,68.3-10.5,79.2-16.4
	c11.2-6,14.2-8.8,17.8-12.4c3.6-3.6,22.4-11.9,33.6,0.5c9.5,10.5,7.8,26.6,7,31.1c-0.1,0.7-0.2,1.5-0.3,2.2
	c-0.3,3.4-2.9,15.5-21.5,29.8c-18.5,14.2-21.2,29.2-18.8,36.8c0,0.1,0,0.2,0.1,0.2c2.1,6.3,8.7,10,15.2,8.6c9.8-2.1,28.3-6,37.1-7.6
	c12.6-2.2,32.9-8.8,60.8,2.8c27.9,11.6,34.7,22.8,34.7,22.8c0,0,0,0,0,0c0,0,11.8,13.8,12.8,16.3c0,0,0,0,0,0
	c-0.7-0.5-9.7-6.8-13.9-6.8c0,0,13.5,4,14,11.6c0,0,0,0,0,0c-0.6-0.5-10.1-7.5-18.2-8c0,0,0,0,0,0c1.3,0.5,15.6,6.6,18.3,12.7
	c0,0,0,0,0,0c-0.9-0.3-15.8-5.5-22.3-4c-6.8,1.6-30.7,35-59.1,34.2c0,0,0,0,0,0c-0.1,0.5,1.6,24,2.8,32.3c1.2,8.4,1.4,10.7-6.2,10.7
	c-7.6,0-30.8,1-36.1,1.4c0,0,0,0,0,0l7.9-3.9c0,0,0,0,0,0l-7.4-1.2c0,0,0,0,0,0l7.4-1.6c0,0,0,0,0,0l-9-2.7c0,0,0,0,0,0
	c2.2,0.2,31.6,0,32.7-1.1c1.2-1.2-10.4-23.6-9.6-32c0,0,0,0,0,0c-0.7,0.1-27.6,4.3-59.2-9.1c-32-13.6-26.2-62.8-26.2-62.8
	c0,0,0,0,0,0c0,0,4.7-29.5,18.2-42.6c12.5-12.1,21.6-27.5,21.7-28.1c0,0,0,0,0,0c-0.6,0.3-9.5,5-21.2,10.8c-8.2,4.1-10.7,5.2-18,8.3
	c-6.5,2.8-20.6,5.6-28.3,5.3c-14.5-0.6-41.3-4.9-44-10.3c0,0,0,0,0,0C93.7,207.3,174.1,178.6,183.1,171.3
	C183.1,171.4,183.1,171.3,183.1,171.3z"/>
<ellipse id="stomach" transform="matrix(0.9936 -0.1127 0.1127 0.9936 -31.3885 30.3418)" class="st0" cx="252.7" cy="292.9" rx="64.1" ry="32.5"/>
<path id="XMLID_100_" class="st1" d="M199.7,304.1l7.1,7.8c0,0,0.2,1.3,2.8,0.9c2.6-0.4,32.6-3.7,32.6-3.7s0.5,1-0.2,1.3l-33.6,3.6
	c0,0-1,0.4-2.1-0.8c-1.1-1.2-7.6-8.2-7.6-8.2S199.1,304.4,199.7,304.1z"/>
<path id="XMLID_92_" class="st1" d="M265.8,271.7l-7.8,7.1c0,0-1.3,0.2-0.9,2.8s3.7,32.6,3.7,32.6s-1,0.5-1.3-0.2l-3.6-33.6
	c0,0-0.4-1,0.8-2.1c1.2-1.1,8.2-7.6,8.2-7.6S265.5,271,265.8,271.7z"/>
<circle id="XMLID_90_" class="st2" cx="214.4" cy="287.7" r="6.7"/>
<circle id="XMLID_89_" class="st2" cx="226.8" cy="282.2" r="6.7"/>
<circle id="XMLID_88_" class="st2" cx="239.1" cy="276.8" r="6.7"/>
<circle id="XMLID_87_" class="st2" cx="219.9" cy="299.9" r="6.7"/>
<circle id="XMLID_86_" class="st2" cx="232.2" cy="294.5" r="6.7"/>
<circle id="XMLID_69_" class="st2" cx="244.5" cy="289" r="6.7"/>
<circle id="XMLID_68_" class="st2" cx="269.4" cy="291.3" r="6.7"/>
<circle id="XMLID_66_" class="st2" cx="281.8" cy="285.8" r="6.7"/>
<circle id="XMLID_65_" class="st2" cx="294.1" cy="280.4" r="6.7"/>
<circle id="XMLID_61_" class="st2" cx="274.9" cy="303.5" r="6.7"/>
<circle id="XMLID_58_" class="st2" cx="287.2" cy="298.1" r="6.7"/>
<circle id="XMLID_56_" class="st2" cx="299.5" cy="292.6" r="6.7"/>
</svg>
