<?xml version="1.0" encoding="utf-8"?>
<!-- Generator: Adobe Illustrator 19.0.0, SVG Export Plug-In . SVG Version: 6.00 Build 0)  -->
<svg version="1.1" id="Layer_1" xmlns="http://www.w3.org/2000/svg" xmlns:xlink="http://www.w3.org/1999/xlink" x="0px" y="0px"
	 viewBox="0 0 479.9 507" style="enable-background:new 0 0 479.9 507;" xml:space="preserve">
<style type="text/css">
	.st0{fill:#E7E7E7;}
	.st1{fill:#2BACE2;}
	.st2{fill:#FBB041;}
	.st3{fill:#FFFFFF;}
</style>
<path id="XMLID_105_" class="st0" d="M142.9,231c18.6-8.5,47.2-37.3,58.1-54.5c15.2-23.9,25.7-47.5,39-77.5
	c17.6-39.5,68.4-42.1,84-45.8c3-0.7,6.1-1,9.2-0.9c15.7,0.8,59.3-5.1,86.4,45.6c23.3,43.8,22.5,94.8,20.2,120.3
	c-0.9,10-3.3,19.9-7.1,29.3c-9.1,22.9-29.6,70-51.8,90.7c-29.8,27.8-115.1,80-162.7,93.9c-47.6,13.9-87.8,29.8-142.8-4
	c-25-15.3-37.5-37.5-43.8-57.3c-9.3-29.5-5.1-61.7,11.7-87.7c7.3-11.3,17.4-21.9,31.1-27.6C101.7,244.6,120.6,241.1,142.9,231z"/>
<path id="XMLID_56_" class="st1" d="M166.6,240.3c15.3-7,38.9-30.8,48-45c12.5-19.7,21.1-39.2,32.2-63.9
	c14.5-32.6,56.4-34.7,69.3-37.8c2.5-0.6,5.1-0.9,7.6-0.7c12.9,0.6,49-4.2,71.3,37.7c19.3,36.1,18.7,78.1,16.6,99.3
	c-0.8,8.3-2.7,16.5-5.8,24.3c-7.5,18.8-24.4,57.8-42.7,74.9c-24.6,22.9-95,66-134.3,77.5c-39.3,11.4-72.5,24.6-117.9-3.3
	c-20.6-12.7-30.9-31-36.1-47.3c-7.7-24.3-4.2-50.9,9.6-72.4c6.1-9.3,14.4-18.1,25.7-22.8C132.5,251.5,148.2,248.7,166.6,240.3z"/>
<path id="XMLID_89_" class="st2" d="M118.9,316.2c0,0-4.6,6.4-10.1,6.7c-5.5,0.3-8.6-1.1-8.6-1.1s-4.4-2.5-4.7-3.2
	c0,0-2.6,2.6-4,2.3s-1.6-2.3-1.6-2.3s1.6-1.7,3.6-1.9c0,0-3.5-0.2-3.6-2.5c-0.1-2.3,1.9-1.9,1.9-1.9s2.9,1.2,3.6,2.2c0,0,4-6,9-5.7
	c5,0.3,7.8,1.9,7.8,1.9S117.4,314.1,118.9,316.2z"/>
<path id="XMLID_117_" class="st2" d="M147.8,360.6c0,0-4.6,6.4-10.1,6.7c-5.5,0.3-8.6-1.1-8.6-1.1s-4.4-2.5-4.7-3.2
	c0,0-2.6,2.6-4,2.3c-1.4-0.3-1.6-2.3-1.6-2.3s1.6-1.7,3.6-1.9c0,0-3.5-0.2-3.6-2.5c-0.1-2.3,1.9-1.9,1.9-1.9s2.9,1.2,3.6,2.2
	c0,0,4-6,9-5.7s7.8,1.9,7.8,1.9S146.4,358.4,147.8,360.6z"/>
<path id="XMLID_140_" class="st2" d="M221.1,289.6c0,0-4.6,6.4-10.1,6.7s-8.6-1.1-8.6-1.1s-4.4-2.5-4.7-3.2c0,0-2.6,2.6-4,2.3
	c-1.4-0.3-1.6-2.3-1.6-2.3s1.6-1.7,3.6-1.9c0,0-3.5-0.2-3.6-2.5c-0.1-2.3,1.9-1.9,1.9-1.9s2.9,1.2,3.6,2.2c0,0,4-6,9-5.7
	c5,0.3,7.8,1.9,7.8,1.9S219.6,287.3,221.1,289.6z"/>
<path id="XMLID_157_" class="st2" d="M256.1,346.6c0,0-4.6,6.4-10.1,6.7c-5.5,0.3-8.6-1.1-8.6-1.1s-4.4-2.5-4.7-3.2
	c0,0-2.6,2.6-4,2.3c-1.4-0.3-1.6-2.3-1.6-2.3s1.6-1.7,3.6-1.9c0,0-3.5-0.2-3.6-2.5s1.9-1.9,1.9-1.9s2.9,1.2,3.6,2.2c0,0,4-6,9-5.7
	s7.8,1.9,7.8,1.9S254.6,344.4,256.1,346.6z"/>
<path id="XMLID_164_" class="st3" d="M244.8,260c0,0-1.2-4.2-2.6-4.8c-1.3-0.6-30.6-10.7-30.6-10.7s-1.7-1-3.2,1.4
	c-1.6,2.4-2.8,7.1-3.3,9.3c-0.5,2.2,3,3,3,3l28.4,10c0.7,0.2,1.6,0.2,2.3,0c1.1-0.4,2.6-1.1,4-2.3l4.4,1.5l2-5.8L244.8,260z"/>
<path id="XMLID_170_" class="st3" d="M200.6,324.9c0,0-4.4-0.2-5.4,0.8c-1,1-20.3,25.3-20.3,25.3s-1.5,1.2,0.2,3.5
	c1.7,2.3,5.8,5,7.7,6.1s3.8-1.8,3.8-1.8l18.8-23.5c0.5-0.6,0.8-1.4,0.8-2.2c0-1.2-0.2-2.8-0.8-4.5l2.9-3.7l-4.8-3.9L200.6,324.9z"/>
<path id="XMLID_235_" class="st3" d="M378.6,137.6c0,0-4.1,1.6-4.6,2.9c-0.5,1.4-8.5,31.3-8.5,31.3s-0.9,1.7,1.6,3.1
	s7.3,2.3,9.6,2.6c2.3,0.3,2.8-3.2,2.8-3.2l7.9-29.1c0.2-0.8,0.2-1.6-0.2-2.3c-0.5-1.1-1.2-2.5-2.6-3.8l1.2-4.5l-6-1.6L378.6,137.6z"
	/>
<path id="XMLID_247_" class="st3" d="M295.8,325c0,0-1.2-4.2-2.6-4.8c-1.3-0.6-30.6-10.7-30.6-10.7s-1.7-1-3.2,1.4
	c-1.6,2.4-2.8,7.1-3.3,9.3c-0.5,2.2,3,3,3,3l28.4,10c0.7,0.2,1.6,0.2,2.3,0c1.1-0.4,2.6-1.1,4-2.3l4.4,1.5l2-5.8L295.8,325z"/>
<path id="XMLID_248_" class="st3" d="M354.6,302.7l-10.1,3.7c0,0-1.3-0.4-1.9,2.3c-0.6,2.6-9.1,32.2-9.1,32.2s-1.2,0.1-1.2-0.7
	l9.6-33.1c0,0,0-1.2,1.6-1.7c1.6-0.5,10.7-4,10.7-4S354.6,302,354.6,302.7z"/>
<path id="XMLID_249_" class="st3" d="M152.9,295.4l-4,10c0,0-1.1,0.7,0.5,3c1.6,2.3,18,28.2,18,28.2s-0.7,0.9-1.3,0.5l-18.3-29.2
	c0,0-0.9-0.8-0.2-2.3c0.6-1.6,4.1-10.7,4.1-10.7S152.3,294.9,152.9,295.4z"/>
<path id="XMLID_250_" class="st3" d="M279.7,130.4l-10.1,3.7c0,0-1.3-0.4-1.9,2.3c-0.6,2.6-9.1,32.2-9.1,32.2s-1.2,0.1-1.2-0.7
	l9.6-33.1c0,0,0-1.2,1.6-1.7c1.6-0.5,10.7-4,10.7-4S279.7,129.7,279.7,130.4z"/>
<path id="XMLID_251_" class="st3" d="M115.6,334.8l-10.1,3.7c0,0-1.3-0.4-1.9,2.3S94.5,373,94.5,373s-1.2,0.1-1.2-0.7l9.6-33.1
	c0,0,0-1.2,1.6-1.7c1.6-0.5,10.7-4,10.7-4S115.6,334.1,115.6,334.8z"/>
<path id="XMLID_252_" class="st3" d="M381.4,190.3l-3.3,10.3c0,0-1.1,0.8,0.6,3c1.7,2.1,19.8,27,19.8,27s-0.6,1-1.2,0.5l-20.2-27.9
	c0,0-0.9-0.7-0.4-2.3c0.5-1.6,3.4-10.9,3.4-10.9S380.8,189.9,381.4,190.3z"/>
<path id="XMLID_253_" class="st3" d="M247.6,197.1c0,0-1.4,4.1-0.6,5.4c0.8,1.2,19.1,26.2,19.1,26.2s0.8,1.8,3.4,0.7
	c2.6-1.1,6.3-4.3,7.9-5.8c1.6-1.6-0.8-4.2-0.8-4.2L259,195.1c-0.5-0.6-1.1-1.1-1.9-1.3c-1.2-0.3-2.7-0.6-4.5-0.4l-2.8-3.7l-5,3.7
	L247.6,197.1z"/>
<path id="XMLID_254_" class="st3" d="M313.5,202.5c0,0-3.7,2.3-3.9,3.8c-0.2,1.4-1.7,32.4-1.7,32.4s-0.5,1.9,2.3,2.7
	c2.7,0.8,7.6,0.6,9.9,0.5s2-3.7,2-3.7l1.6-30c0.1-0.8-0.2-1.6-0.6-2.2c-0.7-0.9-1.7-2.2-3.3-3.2l0.2-4.6l-6.1-0.3L313.5,202.5z"/>
<path id="XMLID_255_" class="st3" d="M298,295.1c0,0,4,1.8,5.3,1.2c1.3-0.6,27.9-16.6,27.9-16.6s1.9-0.6,1-3.3s-3.7-6.7-5.1-8.5
	c-1.4-1.8-4.2,0.4-4.2,0.4l-25.9,15.3c-0.7,0.4-1.2,1-1.5,1.7c-0.5,1.1-0.9,2.6-0.9,4.5l-4,2.4l3.2,5.3L298,295.1z"/>
<path id="XMLID_256_" class="st3" d="M165.4,403.9c0,0-1.2-4.2-2.6-4.8c-1.3-0.6-30.6-10.7-30.6-10.7s-1.7-1-3.2,1.4
	c-1.6,2.4-2.8,7.1-3.3,9.3c-0.5,2.2,3,3,3,3l28.4,10c0.7,0.2,1.6,0.2,2.3,0c1.1-0.4,2.6-1.1,4-2.3l4.4,1.5l2-5.8L165.4,403.9z"/>
<path id="XMLID_257_" class="st3" d="M137.2,270.5c0,0-3.8-2.1-5.2-1.6c-1.3,0.5-29.2,14.2-29.2,14.2s-1.9,0.5-1.2,3.3
	c0.6,2.8,3.1,7,4.4,8.9c1.2,1.9,4.3,0,4.3,0l27.1-13.1c0.7-0.3,1.2-0.9,1.6-1.6c0.5-1.1,1.1-2.6,1.2-4.4l4.1-2.1l-2.7-5.6
	L137.2,270.5z"/>
<path id="XMLID_258_" class="st3" d="M277.5,378l-7.5-7.7c0,0-0.2-1.3-2.9-0.8c-2.6,0.5-33.1,5.1-33.1,5.1s-0.6-1,0.2-1.3l34.1-5
	c0,0,1.1-0.5,2.2,0.7c1.2,1.2,8,8.1,8,8.1S278.2,377.7,277.5,378z"/>
<path id="XMLID_259_" class="st3" d="M276.3,253.3l-10.1,3.7c0,0-1.3-0.4-1.9,2.3c-0.6,2.6-9.1,32.2-9.1,32.2s-1.2,0.1-1.2-0.7
	l9.6-33.1c0,0,0-1.2,1.6-1.7c1.6-0.5,10.7-4,10.7-4S276.3,252.6,276.3,253.3z"/>
<path id="XMLID_260_" class="st3" d="M373.2,230.6l-10.1,3.7c0,0-1.3-0.4-1.9,2.3s-9.1,32.2-9.1,32.2s-1.2,0.1-1.2-0.7l9.6-33.1
	c0,0,0-1.2,1.6-1.7c1.6-0.5,10.7-4,10.7-4S373.2,229.9,373.2,230.6z"/>
<path id="XMLID_261_" class="st3" d="M324.5,113.5c0,0-4.4-0.5-5.4,0.4c-1.1,0.9-22.1,23.7-22.1,23.7s-1.6,1.2,0,3.5
	c1.6,2.3,5.4,5.4,7.2,6.8c1.8,1.3,4-1.6,4-1.6l20.5-22c0.5-0.5,0.9-1.3,0.9-2.1c0.1-1.2,0.1-2.8-0.5-4.5l3.1-3.4l-4.5-4.2
	L324.5,113.5z"/>
<path id="XMLID_262_" class="st3" d="M290.6,171.6l9.7,4.7c0,0,0.6,1.2,3-0.2c2.3-1.4,29.5-15.9,29.5-15.9s0.9,0.8,0.3,1.3
	l-30.4,16.2c0,0-0.9,0.8-2.3,0.1c-1.5-0.7-10.3-4.9-10.3-4.9S290.1,172,290.6,171.6z"/>
</svg>
