<?xml version="1.0" encoding="utf-8"?>
<!-- Generator: Adobe Illustrator 19.0.0, SVG Export Plug-In . SVG Version: 6.00 Build 0)  -->
<svg version="1.1" id="Layer_1" xmlns="http://www.w3.org/2000/svg" xmlns:xlink="http://www.w3.org/1999/xlink" x="0px" y="0px"
	 viewBox="0 0 479.9 507" style="enable-background:new 0 0 479.9 507;" xml:space="preserve">
<style type="text/css">
	.st0{fill:#8EC641;}
	.st1{fill:#046938;}
	.st2{fill:none;stroke:#FFFFFF;stroke-width:3;stroke-miterlimit:10;}
</style>
<g id="turtle">
	<path id="XMLID_125_" class="st0" d="M233.5,191.5c0,0,0.4-35.5-10.4-51.1s-30.2-37.2-62-21.1c-31.8,16-47.6,27.9-59.6,42.2
		c-11.9,14.3-37.8,51-28.1,60.4c0,0,6.4,20.6,36.6-2.4s40-38.4,56.9-43.6c17-5.2,26.8,11.3,26.8,11.3L233.5,191.5z"/>
	<path id="XMLID_124_" class="st0" d="M123,328.7l-38.6-8.4c0,0-22.4,21.8-18.7,46.8c3.7,25,29,36.6,29,36.6l37.4-12.1L123,328.7z"
		/>
	<path id="XMLID_122_" class="st0" d="M316.3,247.3c0,0,32.6-14.1,51.1-10.2s46,13.4,43.5,49s-7.3,54.7-15.8,71.3
		c-8.5,16.5-32.4,54.6-44.8,49.3c0,0-21.4,2.1-12-34.7c9.5-36.8,19.9-51.7,18.1-69.4c-1.8-17.7-20.8-20.3-20.8-20.3L316.3,247.3z"/>
	<path id="XMLID_100_" class="st0" d="M189.9,413.7l-1.3,39.5c0,0,25.5,18.1,49.5,9.9s30.7-35.2,30.7-35.2l-18.7-34.6L189.9,413.7z"
		/>
	<path id="XMLID_99_" class="st1" d="M307.9,152.6c-26.8-15.6-24.1-9-40.4-15.8c-16.2-6.8-64.1-5.9-84.4,17.5
		c-14.9,17.2-19.7,42-47.6,82.7c-27.8,40.7-21.2,102.7-23.7,116.2c-2.4,13.5,13.9,49.4,13.9,49.4l21.5,10.8c0.8-12.7,1-86.1,1-86.1
		c47-6.5,82.2,35.4,82.2,35.4c-15.3,35.2-76.8,53.9-76.8,53.9l19.2,9.7c0,0,33.5,8.2,60.9-16.6c24.3-22,52.1-34.4,75.8-59.7
		c23.7-25.3,54.1-81.1,54.1-81.1c29.5-51.5-19.5-97.1-23.9-99c-1.7-0.8-3.2-1.9-4.9-2.7C331.6,165.6,328.1,164.4,307.9,152.6z"/>
	<path id="XMLID_97_" class="st0" d="M339.7,58.1c0,0-22.3-2.9-25.3,0.9c-3.1,3.8-53.9,94.2-53.9,94.2s-5.2,4.4,7.7,14.4
		c12.9,9.9,38.3,23,50.1,28.7c11.8,5.7,15.7-5.7,15.7-5.7l50-87.4c1.3-2.3,1.2-5.2-0.1-8.4c-2.1-4.8-5.9-11.4-12.4-18.7l7.4-13.6
		l-31.4-18L339.7,58.1z"/>
	<circle id="XMLID_96_" class="st2" cx="214.1" cy="191.9" r="18.4"/>
	<circle id="XMLID_92_" class="st2" cx="247.4" cy="211.4" r="18.4"/>
	<circle id="XMLID_69_" class="st2" cx="195.5" cy="223.7" r="18.4"/>
	<circle id="XMLID_68_" class="st2" cx="228.8" cy="243.2" r="18.4"/>
	<circle id="XMLID_66_" class="st2" cx="175.9" cy="257.4" r="18.4"/>
	<circle id="XMLID_65_" class="st2" cx="209.2" cy="276.8" r="18.4"/>
	<circle id="XMLID_120_" class="st2" cx="291.5" cy="235.2" r="18.4"/>
	<circle id="XMLID_119_" class="st2" cx="324.8" cy="254.6" r="18.4"/>
	<circle id="XMLID_118_" class="st2" cx="272.9" cy="267" r="18.4"/>
	<circle id="XMLID_61_" class="st2" cx="306.2" cy="286.4" r="18.4"/>
	<circle id="XMLID_58_" class="st2" cx="253.3" cy="300.6" r="18.4"/>
	<circle id="XMLID_56_" class="st2" cx="286.6" cy="320.1" r="18.4"/>
</g>
</svg>
