<?xml version="1.0" encoding="utf-8"?>
<!-- Generator: Adobe Illustrator 19.0.0, SVG Export Plug-In . SVG Version: 6.00 Build 0)  -->
<svg version="1.1" xmlns="http://www.w3.org/2000/svg" xmlns:xlink="http://www.w3.org/1999/xlink" x="0px" y="0px"
	 viewBox="0 0 1280 800" style="enable-background:new 0 0 1280 800;" xml:space="preserve">
<style type="text/css">
	.st0{stroke:#FFFFFF;stroke-miterlimit:10;}
	.st1{fill:#FFFFFF;}
	.st2{fill:none;stroke:#FFFFFF;stroke-width:2;stroke-miterlimit:10;}
	.st3{display:none;}
	.st4{display:inline;fill:url(#XMLID_122_);}
	.st5{fill:none;}
	.st6{display:inline;}
	.st7{fill:#1C75BC;}
	.st8{fill:#00A651;}
	.st9{display:inline;fill:#1C75BC;}
	.st10{display:inline;fill:#FFFFFF;}
	.st11{fill:#77B946;}
	.st12{fill:#00A14B;}
	.st13{display:inline;fill:#8DC63F;}
	.st14{display:inline;fill:#006838;}
	.st15{display:inline;fill:#27AAE1;}
	.st16{display:inline;fill:#2B3990;}
	.st17{fill:#8DC63F;}
	.st18{fill:#006838;}
	.st19{fill:#27AAE1;}
	.st20{fill:#2B3990;}
	.st21{display:none;fill:#8DC63F;}
	.st22{fill:none;stroke:#FFFFFF;stroke-width:3;stroke-miterlimit:10;}
	.st23{display:inline;fill:#00AEEF;}
	.st24{fill:#602D91;}
	.st25{fill:#21409A;}
	.st26{fill:#00AEEF;}
	.st27{fill:#ED1C24;}
	.st28{fill:none;stroke:#000000;stroke-width:2;stroke-miterlimit:10;}
</style>
<g id="Layer_1">
</g>
<g id="pellican">
	<path id="XMLID_10_" class="st0" d="M1194.5,339.1H757.2c-6.6,0-12-5.4-12-12V49.5c0-6.6,5.4-12,12-12h437.2c6.6,0,12,5.4,12,12
		v277.6C1206.5,333.7,1201.1,339.1,1194.5,339.1z"/>
	<path id="XMLID_64_" class="st0" d="M956.5,270.7l11.6,30.3h-23l10.2,3.3l-10.2,1.6l8.1,1l-11.6,4.7l26.6-2.1
		c0,0,19.1,0.3,20.5-0.3c1.5-0.6-17.2-28.3-13.8-36.2L956.5,270.7z"/>
	<path id="pellican-outline" class="st0" d="M919,106.2c-2.4,0.4-72.8,11.9-92.6,8.8c0,0,0,0,0,0c3-0.5,68.3-10.5,79.2-16.4
		c11.2-6,14.2-8.8,17.8-12.4s22.4-11.9,33.6,0.5c9.5,10.5,7.8,26.6,7,31.1c-0.1,0.7-0.2,1.5-0.3,2.2c-0.3,3.4-2.9,15.5-21.5,29.8
		c-18.5,14.2-21.2,29.2-18.8,36.8c0,0.1,0,0.2,0.1,0.2c2.1,6.3,8.7,10,15.2,8.6c9.8-2.1,28.3-6,37.1-7.6c12.6-2.2,32.9-8.8,60.8,2.8
		c27.9,11.6,34.7,22.8,34.7,22.8c0,0,0,0,0,0c0,0,11.8,13.8,12.8,16.3c0,0,0,0,0,0c-0.7-0.5-9.7-6.8-13.9-6.8c0,0,13.5,4,14,11.6
		c0,0,0,0,0,0c-0.6-0.5-10.1-7.5-18.2-8c0,0,0,0,0,0c1.3,0.5,15.6,6.6,18.3,12.7c0,0,0,0,0,0c-0.9-0.3-15.8-5.5-22.3-4
		c-6.8,1.6-30.7,35-59.1,34.2c0,0,0,0,0,0c-0.1,0.5,1.6,24,2.8,32.3c1.2,8.4,1.4,10.7-6.2,10.7c-7.6,0-30.8,1-36.1,1.4c0,0,0,0,0,0
		l7.9-3.9c0,0,0,0,0,0l-7.4-1.2c0,0,0,0,0,0l7.4-1.6c0,0,0,0,0,0l-9-2.7c0,0,0,0,0,0c2.2,0.2,31.6,0,32.7-1.1
		c1.2-1.2-10.4-23.6-9.6-32c0,0,0,0,0,0c-0.7,0.1-27.6,4.3-59.2-9.1c-32-13.6-26.2-62.8-26.2-62.8c0,0,0,0,0,0
		c0,0,4.7-29.5,18.2-42.6c12.5-12.1,21.6-27.5,21.7-28.1c0,0,0,0,0,0c-0.6,0.3-9.5,5-21.2,10.8c-8.2,4.1-10.7,5.2-18,8.3
		c-6.5,2.8-20.6,5.6-28.3,5.3c-14.5-0.6-41.3-4.9-44-10.3c0,0,0,0,0,0C829.6,142.1,910,113.4,919,106.2
		C919,106.2,919,106.2,919,106.2z"/>
	
		<ellipse id="stomach" transform="matrix(0.9936 -0.1127 0.1127 0.9936 -19.3596 112.8441)" class="st0" cx="988.6" cy="227.7" rx="64.1" ry="32.5"/>
	<path id="XMLID_100_" class="st1" d="M935.6,238.9l7.1,7.8c0,0,0.2,1.3,2.8,0.9c2.6-0.4,32.6-3.7,32.6-3.7s0.5,1-0.2,1.3l-33.6,3.6
		c0,0-1,0.4-2.1-0.8c-1.1-1.2-7.6-8.2-7.6-8.2S935,239.2,935.6,238.9z"/>
	<path id="XMLID_12_" class="st1" d="M1001.7,206.5l-7.8,7.1c0,0-1.3,0.2-0.9,2.8s3.7,32.6,3.7,32.6s-1,0.5-1.3-0.2l-3.6-33.6
		c0,0-0.4-1,0.8-2.1s8.2-7.6,8.2-7.6S1001.4,205.9,1001.7,206.5z"/>
	<circle id="XMLID_9_" class="st2" cx="950.3" cy="222.6" r="6.7"/>
	<circle id="XMLID_13_" class="st2" cx="962.6" cy="217.1" r="6.7"/>
	<circle id="XMLID_14_" class="st2" cx="975" cy="211.6" r="6.7"/>
	<circle id="XMLID_17_" class="st2" cx="955.8" cy="234.8" r="6.7"/>
	<circle id="XMLID_16_" class="st2" cx="968.1" cy="229.3" r="6.7"/>
	<circle id="XMLID_15_" class="st2" cx="980.4" cy="223.8" r="6.7"/>
	<circle id="XMLID_62_" class="st2" cx="1005.3" cy="226.2" r="6.7"/>
	<circle id="XMLID_61_" class="st2" cx="1017.6" cy="220.7" r="6.7"/>
	<circle id="XMLID_60_" class="st2" cx="1030" cy="215.2" r="6.7"/>
	<circle id="XMLID_50_" class="st2" cx="1010.8" cy="238.4" r="6.7"/>
	<circle id="XMLID_49_" class="st2" cx="1023.1" cy="232.9" r="6.7"/>
	<circle id="XMLID_48_" class="st2" cx="1035.4" cy="227.4" r="6.7"/>
</g>
<g id="Layer_4" class="st3">
	<linearGradient id="XMLID_122_" gradientUnits="userSpaceOnUse" x1="639.3337" y1="800" x2="639.3337" y2="-2.876368e-08">
		<stop  offset="0" style="stop-color:#262262"/>
		<stop  offset="1" style="stop-color:#00AEEF;stop-opacity:0"/>
	</linearGradient>
	<rect id="XMLID_24_" x="-1.3" class="st4" width="1281.3" height="800"/>
	<path id="XMLID_11_" class="st5" d="M850.1,155c0,0-15.3-30.1,20.5-54.6s56.3,11.3,56.3,11.3s16.4-27.2,30.1-25.1
		c13.7,2.1,21.6,11.9,20.7,19.5c0,0,11.6-24.3,34.8-36.8s25.3-8.9,25.3-8.9s23-1,11.2,23.5c0,0-6.3,21.1-14.9,32.9
		c0,0,22.2-4.2,6.5,24.5c0,0,23.5,7.3-7.6,44.9c-31.1,37.6-47.2,41-58,39.4c-10.9-1.6-17-3.3-19.8-17.6c0,0-16.1,24.1-43.2,30.9
		c-27.1,6.8-25.6,3.7-28.7,0c-3.1-3.7,11.2-23.8,11.2-23.8s-18.5,22.6-50.4,14.7c-31.8-7.9-35-19.9-35-19.9s-9.9-21.7,29.2-39.9
		C838.4,170,836.8,159.3,850.1,155z"/>
	<g id="earth_1_" class="st6">
		<path id="XMLID_114_" class="st7" d="M505.6,370.6c0,21.5,37.8,36.6,42.1,54.1c2.9,11.7-6.7,28.8-16.5,35.8
			c-26.2,18.8-48.4,21.2-78.1,21.2c-41,0-99.9-15.2-97.7-53.2c1.3-21.8,47.5-34.9,47.5-58.2c0-22.8-48-40.8-48.1-61.2
			c-0.3-39.9,56.9-59.9,98.3-59.9c39.1,0,89.3,13,94.8,49C551.2,319.4,505.6,345.5,505.6,370.6z"/>
		<path id="XMLID_67_" class="st8" d="M505.6,370.7c0-0.1,0-0.1,0-0.2c0.3-1.5,4.4-19.5,19.5-33.5c9.6-8.9,19.1-19.4,22.5-29.9
			c3.6-11.1-6.9-26.1-15.6-33.3c-3.2-2.6-9.2-7.9-12.8-6l-43.3,26.9c-0.4,0.2-0.8,0.3-1.2,0.2l-4.1-1.1c-1.2-0.3-2.2,0.8-1.8,2
			l1.6,4.4c0.2,0.5,0.6,0.9,1.2,1l14.9,2.3c0.3,0.1,0.7,0.2,0.9,0.5l6.5,7.3c0.1,0.2,0.2,0.3,0.3,0.5l2.2,6.5
			c0.1,0.4,0.1,0.9-0.2,1.3l-10.3,15.3c-0.6,0.9,0,2.2,1.1,2.3l16.8,1.8c0.2,0,0.5,0,0.7-0.1l7.2-2.9c0.5-0.2,1.1-0.1,1.5,0.2l2.5,2
			c0.6,0.4,1.3,0.4,1.9,0l1.6-1.3l-5,7.3l-10.6,14.4c-0.4,0.6-1.1,0.8-1.8,0.5l-3.4-1.4c-0.3-0.1-0.7-0.2-1,0l-5.8,1.8
			c-0.2,0.1-0.5,0.1-0.8,0l-2.8-0.6c-0.4-0.1-0.8,0-1.1,0.2l-8.5,5.7c-0.7,0.4-0.9,1.3-0.4,2l8.8,14.6c0.4,0.7,0.2,1.6-0.5,2.1
			l-0.3,0.2c-0.7,0.4-1,1.4-0.5,2.1l3.9,6.1c0.2,0.3,0.5,0.5,0.8,0.6l8.2,2.6c0.3,0.1,0.5,0.3,0.7,0.5l4.9,6.3
			c0.4,0.5,1,0.7,1.6,0.5l6.3-1.9c1.1-0.3,2.1,0.6,1.9,1.7l-0.9,5.8l-5,27.7c0,0.2-0.1,0.4-0.2,0.5l-6,9.4c-0.3,0.5-0.3,1-0.1,1.5
			l4.6,8.4c0.5,1,1.9,1,2.5,0.2l16.2-22.5c0,0,0,0,0-0.1c0.6-0.8,14.5-16.7,3.6-30.6c-0.1-0.1-1-0.9-1.1-1
			C525.4,399.9,504.5,383.1,505.6,370.7z"/>
		<path id="XMLID_112_" class="st8" d="M366,284.4l5.3,8.3c0.8,1.2-0.2,2.8-1.6,2.6l-4.3-0.6c-0.4-0.1-0.8,0-1.1,0.3l-7.3,4.8
			c-0.4,0.3-0.7,0.7-0.7,1.1l-0.2,12.6c-0.1,0.5,0.1,0.9,0.3,1.3l20.7,20.5l7.7,8.1c3.7,3.6,6.9,6.8,10.6,10.4
			c1.1,2.6,4.5,5.1,5.2,8.1c0.1,0.3,0.3,0.5,0.3,0.8l0.9,2.2c0.1,0.2,0.2,0.5,0.3,0.7l4.4,7.6c0.3,0.1,0.6,0.3,0.8,0.6l5.3,7.1
			c0.3,0.4,0.4,0.8,0.3,1.2l-0.8,5.4c-0.1,0.8,0.3,1.5,1.1,1.8l22.5,8.5c0.3,0.1,0.6,0.3,0.8,0.6l2.4,3.4c0.2,0.3,0.3,0.7,0.3,1.2
			l-0.2,1.4c-0.1,0.7,0.3,1.4,0.9,1.7l5.5,2.5l-0.7-1.8c0-0.1-0.1-0.2-0.2-0.4l-3.2-4.6c-0.5-0.7-0.3-1.7,0.4-2.3l3.7-2.7
			c0.5-0.3,0.7-0.9,0.7-1.5l-0.3-3c-0.1-1.3-1.6-1.9-2.6-1.2l-3.1,2.3c-0.5,0.3-1,0.4-1.6,0.2l-5.7-2.2c-0.4-0.2-0.8-0.5-0.9-0.9
			l-8.3-20.4c-0.1-0.2-0.2-0.4-0.4-0.6l-3.7-3.5c-1-1-0.4-2.7,1-2.9l4.4,0.3c0.3,0,2.4-0.6,2.7-0.5l3.2,2.5c0.9,0.5,2.4-0.2,2.6-1.3
			l1-0.2l4,11.3c0.2,0.7,0.1,1.2,0.8,1.2l-0.1,0.1c0.9,0,1-0.5,1-1.4l-0.5-6.1c0-0.4-0.3-1.1-0.5-1.4l-18.9-18.4l12.5-18.7
			c0.1-0.2,0.1-0.3,0.2-0.5l1.8-12.6c0-0.2,0.1-0.5,0.2-0.7l8.7-13.5c0.2-0.3,0.5-0.6,0.9-0.7l9.4-3.1c0.5-0.2,0.8-0.5,1-0.9
			l3.4-7.9c0.1-0.3,0.2-0.7,0.1-1l-1.4-5.6c-0.2-0.8-0.9-1.3-1.7-1.3l-13.3,0.6c-0.4,0-0.8,0.2-1.1,0.5l-3.4,3.3
			c-0.6,0.6-1.6,0.6-2.2,0.1l-7.6-6.2c-0.5-0.4-0.7-0.9-0.6-1.5l0.6-4c0.2-1.1-0.7-2-1.8-1.9l-12.6,1.4c-0.2,0-0.3,0-0.5,0
			l-20.9-4.2c-0.4-0.1-0.8-0.3-1-0.6l-1.3-1.7c-0.3-0.4-0.7-0.6-1.2-0.7l-5.7,0c-0.6,0-0.8,0-1.4,0.6l-15,13
			c-0.4,0.4-0.7,0.9-0.9,1.5C365.7,283.4,365.7,283.9,366,284.4z"/>
		<polygon id="XMLID_111_" class="st8" points="447.1,409.4 444.5,418.8 437,421.1 434.7,429.1 438.5,432.2 439.8,435.6 
			445.8,442.4 447.9,456.9 445,467.3 445.5,477.2 450.2,476.7 449.7,473.2 457.5,463.4 477.4,454.2 488.4,444.8 492.2,438.5 
			490.7,434.7 486.7,434.4 477.3,426.2 477.2,423.6 467.3,419.9 460.4,411.1 452.3,410.8 		"/>
	</g>
	<path id="XMLID_63_" class="st9" d="M548,383.5"/>
	<polygon id="XMLID_66_" class="st10" points="507.1,450.7 402.4,450.9 400.8,447 508.6,447 	"/>
	<polygon id="XMLID_68_" class="st10" points="505.7,456.7 403,456.7 402.9,453.3 506.3,453.3 	"/>
	<path id="XMLID_148_" class="st10" d="M482.7,499.6l-17.4-29.1c0,0-1-3.2-9-4.5c-8.5-1.4-54.7-3.5-54.7-3.5s1-2.7,1.2-4l58,4.2
		c0,0,4.1,0.3,6.3,3.8c2.8,4.4,19.2,30.6,19.2,30.6S485,499.2,482.7,499.6z"/>
</g>
<g id="seaweed">
	<path id="XMLID_4_" class="st11" d="M74.1,674.4c0,0,16.8,82.1,0,125.6h60.7c0,0-20.7-103.6,0-137.2c20.7-33.6,74.9-82.6,78.7-95.5
		c3.9-12.9-5.6-14.2-5.6-14.2s-9.5,2.8-29,25.1c-19.5,22.3-45.3,25.1-34.6,0.6c0,0,36.3-53.5,35.8-83.1c0,0,2.2-35.1-2.8-54.1
		c-5-19-26.2-14.5-26.2,6.7s5.6,42.4,5.6,42.4s0,29-6.1,30.1c-6.1,1.1-10.6-1.1-16.2-37.4c0,0,0.6-29.6-10-20.6
		s-11.2,15.1-11.2,15.1s16.7,30.7,14.5,42.9c-2.2,12.3-32.9,5-34.6-18.4c-1.7-23.4,1.1-87-8.4-99.3s-17.3-2.2-17.3-2.2
		s-12.3,31.2-5,70.8s26.2,79.7,25.7,92c0,0,3.3,39-6.7,56.9c-10,17.8-29.6-92-29.6-92S44.5,485,28.4,494S25,528,25,528
		s28.4,49.6,24.5,70.5c-3.9,20.9-21.7-9.7-21.7-9.7S17.2,563.7,5,565.9c-12.3,2.2-2.8,13.4-2.8,13.4s33.5,39.6,45.2,53
		C59,645.6,74.1,674.4,74.1,674.4z"/>
	<path id="XMLID_3_" class="st12" d="M235.3,650.2c0,0-20,97.9,0,149.8H163c0,0,24.6-123.6,0-163.6c-24.6-40-89.3-98.5-93.9-113.9
		c-4.6-15.4,6.7-16.9,6.7-16.9s11.3,3.3,34.6,29.9c23.3,26.6,54,29.9,41.3,0.7c0,0-43.3-63.8-42.6-99.1c0,0-2.7-41.9,3.3-64.5
		c6-22.6,31.3-17.3,31.3,8s-6.7,50.5-6.7,50.5s0,34.6,7.3,35.9c7.3,1.3,12.6-1.3,19.3-44.6c0,0-0.7-35.2,12-24.6
		c12.6,10.6,13.3,18,13.3,18s-20,36.6-17.3,51.2c2.7,14.6,39.2,6,41.2-21.9c2-27.9-1.3-103.8,10-118.4c11.3-14.6,20.6-2.7,20.6-2.7
		s14.6,37.2,6,84.5c-8.6,47.2-31.3,95.1-30.6,109.7c0,0-4,46.6,8,67.8S262,476.2,262,476.2s8.6-51.9,27.9-41.2
		c19.3,10.6,4,40.6,4,40.6s-33.9,59.1-29.3,84.1s25.9-11.6,25.9-11.6s12.6-29.9,27.3-27.3c14.6,2.7,3.3,16,3.3,16
		s-39.9,47.2-53.9,63.2C253.3,615.9,235.3,650.2,235.3,650.2z"/>
</g>
<g id="turtle" class="st3">
	<path id="XMLID_40_" class="st13" d="M675.7,515.3c0,0-20.6-4.4-30.9,0c-10.3,4.4-25.2,13.2-19.6,33.6c5.6,20.4,10.6,31,17.5,39.6
		c6.9,8.6,25.2,28,31.8,23.5c0,0,12.7-1.3,2.9-21.6c-9.8-20.3-17.6-27.8-18.6-38.3s9.7-14.3,9.7-14.3L675.7,515.3z"/>
	<path id="XMLID_41_" class="st13" d="M736.9,615.5l-9.5,21.5c0,0,10,15.6,25,16.4c15,0.8,24.7-12.6,24.7-12.6l-2.6-23.2
		L736.9,615.5z"/>
	<polygon id="XMLID_42_" class="st13" points="807.3,606.3 823.7,616.1 813.7,599.3 	"/>
	<path id="XMLID_39_" class="st13" d="M678.8,509.4c0,0-51.5-36.3-30.9-75.4c0,0,45.5,0.7,62.8,41.4S678.8,509.4,678.8,509.4z"/>
	<path id="XMLID_43_" class="st13" d="M717.9,473.8c0,0-4.4-20.6,0.1-30.9s13.2-25.2,33.6-19.5c20.4,5.6,31,10.7,39.6,17.6
		s27.9,25.3,23.4,31.9c0,0-1.3,12.7-21.6,2.9c-20.3-9.9-27.7-17.7-38.2-18.7c-10.5-1.1-14.3,9.7-14.3,9.7L717.9,473.8z"/>
	<path id="XMLID_44_" class="st13" d="M820,562.1l22.8,5.4c0,0,13.5-12.7,11.6-27.6s-16.8-22-16.8-22l-22.3,6.8L820,562.1z"/>
	<path id="shell_base" class="st14" d="M693.7,488.1c0,0,22-18.3,33.9-22c11.9-3.6,27.2-7.6,42.1,0c14.9,7.6,29.2,22.2,36.5,36.8
		c7.3,14.6,16,37.4,15.1,61.3c-0.9,23.9-9.8,39.8-9.8,39.8s-29.7,17.2-53.9,14.3s-34.2-4-50.1-13.9c-15.9-9.9-39.1-28.8-39.4-58.3
		C667.6,516.6,693.7,488.1,693.7,488.1z"/>
	<circle id="XMLID_32_" class="st15" cx="788.2" cy="537.9" r="9.3"/>
	<circle id="XMLID_33_" class="st16" cx="691.6" cy="530.6" r="7.9"/>
	<circle id="XMLID_34_" class="st16" cx="736.9" cy="559.7" r="9.5"/>
	<circle id="XMLID_35_" class="st16" cx="769.3" cy="588.5" r="13.4"/>
	<circle id="XMLID_36_" class="st16" cx="733.7" cy="481.6" r="6.3"/>
	<circle id="XMLID_37_" class="st16" cx="759.6" cy="537.5" r="6.8"/>
	<circle id="XMLID_38_" class="st13" cx="792.6" cy="563.1" r="8.4"/>
	<circle id="XMLID_25_" class="st13" cx="723.6" cy="530.6" r="16.9"/>
	<circle id="XMLID_26_" class="st13" cx="759.6" cy="561.2" r="9"/>
	<circle id="XMLID_27_" class="st13" cx="760.1" cy="502" r="22.5"/>
	<circle id="XMLID_28_" class="st13" cx="737.6" cy="588.5" r="8.4"/>
	<circle id="XMLID_29_" class="st15" cx="795" cy="590.4" r="6"/>
	<circle id="XMLID_30_" class="st15" cx="711.5" cy="500.2" r="12.1"/>
	<circle id="XMLID_31_" class="st15" cx="707.9" cy="564.9" r="12.8"/>
</g>
<g id="Layer_10">
	<path id="XMLID_97_" class="st17" d="M405.1,623.8c0,0-20.6-4.4-30.9,0c-10.3,4.4-25.2,13.2-19.6,33.6c5.6,20.4,10.6,31,17.5,39.6
		c6.9,8.6,25.2,28,31.8,23.5c0,0,12.7-1.3,2.9-21.6c-9.8-20.3-17.6-27.8-18.6-38.3c-1-10.5,9.7-14.3,9.7-14.3L405.1,623.8z"/>
	<path id="XMLID_96_" class="st17" d="M466.3,723.9l-9.5,21.5c0,0,10,15.6,25,16.4s24.7-12.6,24.7-12.6l-2.6-23.2L466.3,723.9z"/>
	<polygon id="XMLID_95_" class="st17" points="536.7,714.7 553.1,724.5 543.1,707.7 	"/>
	<path id="XMLID_94_" class="st17" d="M408.2,617.8c0,0-51.5-36.3-30.9-75.4c0,0,45.5,0.7,62.8,41.4
		C457.5,624.4,408.2,617.8,408.2,617.8z"/>
	<path id="XMLID_93_" class="st17" d="M447.3,582.2c0,0-4.4-20.6,0.1-30.9c4.5-10.3,13.2-25.2,33.6-19.5c20.4,5.6,31,10.7,39.6,17.6
		c8.6,6.9,27.9,25.3,23.4,31.9c0,0-1.3,12.7-21.6,2.9c-20.3-9.9-27.7-17.7-38.2-18.7c-10.5-1.1-14.3,9.7-14.3,9.7L447.3,582.2z"/>
	<path id="XMLID_92_" class="st17" d="M549.4,670.6l22.8,5.4c0,0,13.5-12.7,11.6-27.6s-16.8-22-16.8-22l-22.3,6.8L549.4,670.6z"/>
	<path id="shell_base_1_" class="st18" d="M423.1,596.6c0,0,22-18.3,33.9-22c11.9-3.6,27.2-7.6,42.1,0c14.9,7.6,29.2,22.2,36.5,36.8
		c7.3,14.6,16,37.4,15.1,61.3c-0.9,23.9-9.8,39.8-9.8,39.8s-29.7,17.2-53.9,14.3c-24.3-3-34.2-4-50.1-13.9
		c-15.9-9.9-39.1-28.8-39.4-58.3C397,625,423.1,596.6,423.1,596.6z"/>
	<circle id="XMLID_91_" class="st19" cx="517.6" cy="646.3" r="9.3"/>
	<circle id="XMLID_90_" class="st20" cx="421" cy="639.1" r="7.9"/>
	<circle id="XMLID_89_" class="st20" cx="466.3" cy="668.1" r="9.5"/>
	<circle id="XMLID_88_" class="st20" cx="498.7" cy="697" r="13.4"/>
	<circle id="XMLID_87_" class="st20" cx="463.1" cy="590" r="6.3"/>
	<circle id="XMLID_86_" class="st20" cx="489" cy="645.9" r="6.8"/>
	<circle id="XMLID_85_" class="st17" cx="522" cy="671.6" r="8.4"/>
	<circle id="XMLID_84_" class="st17" cx="453" cy="639.1" r="16.9"/>
	<circle id="XMLID_83_" class="st17" cx="489" cy="669.6" r="9"/>
	<circle id="XMLID_82_" class="st17" cx="489.5" cy="610.4" r="22.5"/>
	<circle id="XMLID_81_" class="st17" cx="467" cy="697" r="8.4"/>
	<circle id="XMLID_80_" class="st19" cx="524.4" cy="698.9" r="6"/>
	<circle id="XMLID_79_" class="st19" cx="440.9" cy="608.7" r="12.1"/>
	<circle id="XMLID_78_" class="st19" cx="437.3" cy="673.4" r="12.8"/>
	<path id="XMLID_99_" class="st21" d="M749.6,461.3h13.9c0,0-2.5,36.7,9.7,63.8c0,0,35.5,8,60.8-10.1c0,0,4.2-51.7,12.2-55.4h15.6
		c0,0-5.9,45.7-3.4,54.6c2.5,8.9,12.7,32.1,8.4,65c-4.2,32.9-5.9,48.6-3.4,64.2c2.5,15.6,9.3,24.5-2.1,25.3
		c-11.4,0.8-15.2-0.8-34.2,5.5c-19,6.3-32.9,9.7-58.3,0c0,0-15.6-5.5-33.4-2.1c0,0-7.6,5.8-5.1-43.6c0,0-3.8-42.2,2.5-64.5
		c6.3-22.4,16.9-38.4,17.3-60.4C750.8,481.6,749.6,461.3,749.6,461.3z"/>
	<path id="XMLID_105_" class="st17" d="M729.7,593.1c0,0-10.4-18.3-20.6-23.1c-10.2-4.8-26.6-10-38.1,7.7
		c-11.5,17.7-16.1,28.6-17.9,39.4s-4.1,37.4,3.7,39.4c0,0,9.4,8.6,18-12.2c8.6-20.8,9-31.6,16.1-39.4c7.1-7.7,17.1-2.2,17.1-2.2
		L729.7,593.1z"/>
	<path id="XMLID_104_" class="st17" d="M714.1,696.5l-22.3,7.2c0,0-5,17.9,4.4,29.6s25.8,10.1,25.8,10.1l15.5-17.4L714.1,696.5z"/>
	<path id="XMLID_102_" class="st17" d="M788.8,596.9c0,0,12.5-17,23.1-20.5c10.7-3.6,27.6-6.9,37,12.1c9.4,19,12.7,30.2,13.2,41.2
		s-0.2,37.6-8.2,38.7c0,0-10.4,7.5-16.5-14.2c-6.2-21.7-5.3-32.4-11.5-41c-6.2-8.5-16.8-4.2-16.8-4.2L788.8,596.9z"/>
	<path id="XMLID_98_" class="st17" d="M773.9,720l11.2,20.6c0,0,18.5,1.6,28.3-9.7c9.8-11.4,5.2-27.2,5.2-27.2l-19.9-12.1L773.9,720
		z"/>
	<path id="XMLID_101_" class="st18" d="M756.1,550.9c-18.4,0-15.1,2.6-25.4,4c-10.4,1.4-34.6,16.1-38,34.3
		c-2.5,13.3,2.5,27.4,0.4,56.6c-2.1,29.2,19.9,59,22.7,66.6c2.8,7.7,21.9,21.1,21.9,21.1l14.3-0.9c-3.4-6.8-25.3-44.4-25.3-44.4
		c22.1-17.4,52.7-6.5,52.7-6.5c2.7,22.6-23.2,50.6-23.2,50.6l12.7-0.8c0,0,19.6-5.8,26.2-26.7c5.8-18.5,16.4-33.2,21-53.3
		s3.5-57.7,3.5-57.7c-0.3-35.3-39-43.9-41.9-43.6c-1.1,0.1-2.2,0-3.3,0.1C772.2,550.5,770,550.9,756.1,550.9z"/>
	<path id="XMLID_103_" class="st17" d="M744.2,493c0,0-12.3,5.2-12.7,8s0.6,64.4,0.6,64.4s-1.3,3.8,8.3,5s26.5,0.3,34.3-0.3
		c7.8-0.6,6.3-7.6,6.3-7.6l-0.5-59.7c0-1.5-0.9-3-2.6-4.3c-2.5-1.8-6.5-4.1-12-5.9l-0.2-9.2l-21.5,0.2L744.2,493z"/>
	<circle id="XMLID_106_" class="st22" cx="719.9" cy="599.1" r="10.9"/>
	<circle id="XMLID_107_" class="st22" cx="742.8" cy="599.1" r="10.9"/>
	<circle id="XMLID_108_" class="st22" cx="719.9" cy="621" r="10.9"/>
	<circle id="XMLID_109_" class="st22" cx="742.8" cy="621" r="10.9"/>
	<circle id="XMLID_110_" class="st22" cx="719.9" cy="644.1" r="10.9"/>
	<circle id="XMLID_113_" class="st22" cx="742.8" cy="644.1" r="10.9"/>
	<circle id="XMLID_120_" class="st22" cx="772.5" cy="598.1" r="10.9"/>
	<circle id="XMLID_119_" class="st22" cx="795.4" cy="598.1" r="10.9"/>
	<circle id="XMLID_118_" class="st22" cx="772.5" cy="620" r="10.9"/>
	<circle id="XMLID_117_" class="st22" cx="795.4" cy="620" r="10.9"/>
	<circle id="XMLID_116_" class="st22" cx="772.5" cy="643.1" r="10.9"/>
	<circle id="XMLID_115_" class="st22" cx="795.4" cy="643.1" r="10.9"/>
</g>
<g id="fish" class="st3">
	<path id="XMLID_2_" class="st23" d="M903.5,200.1c0,0,17.1,23.9,37.6,24.9c20.5,1,31.8-4.1,31.8-4.1s16.4-9.2,17.8-12
		c0,0,9.6,9.6,14.7,8.5s5.8-8.3,5.8-8.3s-5.8-6.4-13.3-7.1c0,0,13-0.7,13.3-9.2s-6.8-6.8-6.8-6.8s-10.6,4.4-13.3,8.2
		c0,0-15-22.2-33.6-21.2c-18.6,1-28.9,7.2-28.9,7.2S909,191.9,903.5,200.1z"/>
	<path id="XMLID_18_" class="st23" d="M1033.8,303.1c0,0,17.1,23.9,37.6,24.9c20.5,1,31.8-4.1,31.8-4.1s16.4-9.2,17.8-12
		c0,0,9.6,9.6,14.7,8.5c5.1-1,5.8-8.3,5.8-8.3s-5.8-6.4-13.3-7.1c0,0,13-0.7,13.3-9.2c0.3-8.5-6.8-6.8-6.8-6.8s-10.6,4.4-13.3,8.2
		c0,0-15-22.2-33.6-21.2c-18.6,1-28.9,7.2-28.9,7.2S1039.3,294.9,1033.8,303.1z"/>
	<path id="XMLID_19_" class="st23" d="M915.7,322.4c0,0,10.2,18,22.3,18.8s18.9-3.1,18.9-3.1s9.7-6.9,10.6-9c0,0,5.7,7.2,8.7,6.4
		c3-0.8,3.5-6.3,3.5-6.3s-3.5-4.8-7.9-5.3c0,0,7.7-0.5,7.9-6.9s-4.1-5.1-4.1-5.1s-6.3,3.3-7.9,6.2c0,0-8.9-16.7-20-15.9
		c-11.1,0.8-17.2,5.4-17.2,5.4S918.9,316.2,915.7,322.4z"/>
	<path id="XMLID_20_" class="st23" d="M1104.9,125.4c0,0,17.1,23.9,37.6,24.9c20.5,1,31.8-4.1,31.8-4.1s16.4-9.2,17.8-12
		c0,0,9.6,9.6,14.7,8.5c5.1-1,5.8-8.3,5.8-8.3s-5.8-6.4-13.3-7.1c0,0,13-0.7,13.3-9.2c0.3-8.5-6.8-6.8-6.8-6.8s-10.6,4.4-13.3,8.2
		c0,0-15-22.2-33.6-21.2c-18.6,1-28.9,7.2-28.9,7.2S1110.4,117.3,1104.9,125.4z"/>
	<path id="XMLID_21_" class="st23" d="M784.2,400.7c0,0,11.8,16.5,25.9,17.2c14.1,0.7,21.9-2.8,21.9-2.8s11.3-6.4,12.2-8.2
		c0,0,6.6,6.6,10.1,5.9c3.5-0.7,4-5.7,4-5.7s-4-4.4-9.2-4.9c0,0,8.9-0.5,9.2-6.4c0.2-5.9-4.7-4.7-4.7-4.7s-7.3,3.1-9.2,5.6
		c0,0-10.3-15.3-23.2-14.6c-12.8,0.7-19.9,4.9-19.9,4.9S788,395,784.2,400.7z"/>
	<path id="XMLID_22_" class="st23" d="M804.5,276.6c0,0,8.6,12,18.8,12.5c10.3,0.5,15.9-2.1,15.9-2.1s8.2-4.6,8.9-6
		c0,0,4.8,4.8,7.4,4.3s2.9-4.2,2.9-4.2s-2.9-3.2-6.7-3.5c0,0,6.5-0.3,6.7-4.6s-3.4-3.4-3.4-3.4s-5.3,2.2-6.7,4.1
		c0,0-7.5-11.1-16.8-10.6c-9.3,0.5-14.5,3.6-14.5,3.6S807.2,272.5,804.5,276.6z"/>
	<path id="XMLID_23_" class="st23" d="M1158.7,418.9c0,0,17.1,23.9,37.6,24.9c20.5,1,31.8-4.1,31.8-4.1s16.4-9.2,17.8-12
		c0,0,9.6,9.6,14.7,8.5c5.1-1,5.8-8.3,5.8-8.3s-5.8-6.4-13.3-7.1c0,0,13-0.7,13.3-9.2c0.3-8.5-6.8-6.8-6.8-6.8s-10.6,4.4-13.3,8.2
		c0,0-15-22.2-33.6-21.2c-18.6,1-28.9,7.2-28.9,7.2S1164.2,410.7,1158.7,418.9z"/>
</g>
<g id="octopus">
	<path id="XMLID_1_" class="st24" d="M979.1,514.8c0,0-12.8-17.2-12.4-31.8s4-29.2,8.4-38c4.4-8.8,16.3-23.9,35.8-32.3
		c19.4-8.4,41.1-3.1,41.1-3.1s19.9,4.9,31.4,18.6c11.5,13.7,14.9,15.4,18.6,31.4c3.2,14.3,5.7,24.4,0,38.9
		c-5.4,13.8-6.6,13.3-6.6,13.3s6.6,15.9,21.2,15.9c14.6,0,39.3,1.3,31.8-23.4c-7.5-24.7-24.7-48.6-19.4-73.8
		c5.3-25.2,26.5-19,26.5-19s12.8,3.5,18.6,15.9c0,0-23.1-12.8-28.9-5c-4.8,6.4-0.1,8.8,9,25.4c8.4,15.4,18.5,39.2,18.5,39.2
		s9,19,5.5,33.1c-3.5,14.1-11.6,24.1-28.4,29.8c-16.8,5.7-40.2,8.8-59-7.5c0,0,9.9,17,26.6,19.2c1.1,0.1,2.2,0.4,3.3,0.6
		c3.3,0.8,11.1,2.1,21.3,0.9c3-0.4,5.8-1.7,8-3.9c5.8-6,19.8-18.8,33-18.1c17.2,0.9,26.8,10.3,28.3,15.9c1.5,5.7,3.5,14.6-4,20.8
		c0,0,1.3-24.3-13.7-25.2c-12-0.7-19.7,8.6-24.5,12.5c-2.2,1.8-3.2,3-5.4,5.1c-2.5,2.5-8.8,7.3-17.7,10c-19.6,6-62.1-12.5-62.1-12.5
		s15.8,30,48.2,35.8c27,4.8,54.1-3.7,49.5-13.8c-5.3-11.6-8-13.7-8-13.7s19.3,11.2,17.2,22.9c-2.7,15.2-28.3,28.4-53,27
		c-24.7-1.3-49.5-13.3-61.4-22.1c0,0,22.4,45.4,8.7,66.5c0,0-6.3,15.3-32.1,13.5c-25.9-1.8-27.8-19-28.3-25.2
		c0,0,9.7,11.9,25.6,11.9c0,0,22.5-2.2,16.3-18.1c0,0-6.6-23.4-17.2-39.8c-10.6-16.3-12.8-21.6-12.8-21.6s-5.7,33.1-13.3,45.1
		c-5.1,8.1-13.8,21.3-18.8,28.8c-2.9,4.3-4.1,9.5-3.5,14.6c0.7,6.2,2.7,14.4,7.8,20.2c0,0-32.2-4.9-20.3-34c0,0,25.2-42.4,20.3-72.9
		c0,0-23.9,18.1-51.3,21.6c0,0-26.6,2-29.7,16.1c-2.8,12.5,21.3,28.9,38.6,14.3c17.2-14.6,22.5-21.6,22.5-21.6s-4.4,22.5-14.6,32.3
		c-10.2,9.7-22.8,15.8-40.6,9.3c0,0-26.4-7.4-25.8-43.7c0-3,0.8-5.9,2.3-8.4c4.4-7.6,16.3-22.7,42.5-24.3
		c20.4-1.3,27.1-3.9,32.6-8.4c3.3-2.6,11.3-10,11.7-14.1l6.3-18.3c0,0-24.1,32.7-60.7,33.2s-71.3-24.5-72-44.2
		c-1.1-29.2,3.2-33.8,21.6-51c0,0-17.2,39.3-3.1,53.9c14.1,14.6,30,17.7,30,17.7s19.4,6.6,40.2-4.9c0,0,14.1-5.3,19.4-12.8
		c0,0-27.8,21.6-50.8,5.3c-23-16.3-23.9-39.8-17.2-62.3c2.9-9.9,6-17.6,6.5-22.2c0.6-5.6-5-10-10.6-10.6c-3.7-0.4-8.3,0.1-13.6,2.7
		c0,0-0.4-18,18.1-17.9c1.9,0,3.6,0.2,5.2,0.4c11.1,1.8,19.1,11.8,18.9,23.1c-0.2,7.6-1,18.9-4.2,31.5
		c-5.2,21.1,17.7,36.2,17.7,36.2S970.7,533.8,979.1,514.8z"/>
</g>
<g id="whales">
	<path id="XMLID_46_" class="st25" d="M230.2,227.3c0,0-52.7-10.3-81.3-52.7c0,0-8.3-13.1-13.9-23.8c0,0-14.7-5.6-19,11.1
		c0,0-2,4,1.6,11.5c0,0-23.8-1.8-22.6-23.5s22.2-26.5,22.2-26.5s9.5-2,12.7,0c0,0,2-17.8,9.9-24.6c7.9-6.7,14.7-8.3,14.7-8.3
		s15.5-2.8,21,5.6s5.6,16.3,5.6,16.3s-25.4,8.3-23,24.2s10.7,18.6,10.7,18.6s21.4,15.5,56.7-8.7c0,0,53.5-44,65-49.2
		c11.5-5.2,48.8-24.2,81.3-18.6s48.8,19,56.3,31.7c7.5,12.7,16.3,24.4,17.1,42.1s0,26.1,0,26.1l3.6,11.9c0,0,0.8,5.6-3.6,6.7
		c-4.4,1.2-4.4,1.2-4.4,1.2s-15.9,3.6-48.8-1.6s-54.7,1.2-54.7,1.2s-22.6,4.8-38.5,10.7c-15.9,5.9-39.7,15.1-46.8,16.3
		C244.8,226.1,230.2,227.3,230.2,227.3z"/>
	<ellipse id="XMLID_45_" class="st26" cx="358" cy="91.8" rx="7.7" ry="2.6"/>
	<path id="XMLID_47_" class="st26" d="M230.2,227.3c0,0,30.9,8.7,69.4,7.1s101.9-6.7,128.1-17.4c0,0,18.6-4.4,15.9-11.5
		c-2.8-7.1-2.8-7.1-2.8-7.1s-19.8,2.8-48.8-1.6"/>
</g>
<g id="starfish">
	<path id="XMLID_6_" class="st27" d="M632.6,300.1c0,0,16.7-19.1,17.4-60.7c0,0,3.6-23.7,16.3,18.4c0.9,2.9,1.8,6.1,2.8,9.7
		c0,0,4.9,9.4-3.1,38.9c0,0,49.3,5.2,58,10.1c8.7,4.9,9,5.9,8.7,9c-0.3,3.1-5.9,6.2-16.3,6.2s-52.1,1.7-53.1,9
		c-1,7.3,11.5,38.2,16,44.4s14.7,26.8,3.5,22.8c-11.2-4-37.9-36-44.5-48.5c0,0-15.3,5.9-36.1,28.1c-20.8,22.2-22.2,12.4-22.2,12.4
		s-1.7-8.6,14.9-37c16.7-28.5,23.6-34.4,16-42.4c-7.6-8-34.4-33-34.4-33s-19.8-17.4-8.7-17.4S625.4,290.1,632.6,300.1z"/>
	<circle id="XMLID_5_" cx="634.4" cy="315.4" r="3.8"/>
	<circle id="XMLID_7_" cx="650.5" cy="320.6" r="3.8"/>
	<path id="XMLID_8_" class="st28" d="M624.7,322.9c5.4,23.3,12.5,15.1,25.8,11.1"/>
	<path id="XMLID_65_" class="st8" d="M84.5,306.9l36.5-53.2c0,0,3.8-4.6,7.3-2.3c3.5,2.3,6.9,4.9,6.9,4.9s3.7,2.9,0,8.6
		S91,329.4,91,329.4s-5.2,4.9-9.9,0s-26.8-26.9-26.8-26.9s-3.4-2.4,0-5.8c3.4-3.4,7.2-6.9,7.2-6.9s3.1-2.7,6.4,0.7
		C71.2,293.9,84.5,306.9,84.5,306.9z"/>
</g>
</svg>
